<svg xmlns="http://www.w3.org/2000/svg" xmlns:xlink="http://www.w3.org/1999/xlink" width="100" zoomAndPan="magnify" viewBox="0 0 75 41.25" height="55" preserveAspectRatio="xMidYMid meet" version="1.0"><defs><g/><clipPath id="id1"><path d="M 20 8 L 31 8 L 31 18.648438 L 20 18.648438 Z M 20 8 " clip-rule="nonzero"/></clipPath><clipPath id="id2"><path d="M 26 2.441406 L 68.457031 2.441406 L 68.457031 18.648438 L 26 18.648438 Z M 26 2.441406 " clip-rule="nonzero"/></clipPath><clipPath id="id3"><path d="M 15.421875 2.441406 L 35 2.441406 L 35 18.648438 L 15.421875 18.648438 Z M 15.421875 2.441406 " clip-rule="nonzero"/></clipPath></defs><g clip-path="url(#id1)"><path fill="#918f8f" d="M 20.792969 18.199219 L 29.449219 8.125 L 30.894531 9.839844 L 29.472656 9.003906 L 20.792969 18.199219 " fill-opacity="1" fill-rule="nonzero"/></g><path fill="#918f8f" d="M 32.085938 17.335938 L 40.003906 8.125 L 42.355469 10.976562 L 40.03125 9.003906 L 32.085938 17.335938 " fill-opacity="1" fill-rule="nonzero"/><g clip-path="url(#id2)"><path fill="#526799" d="M 46.535156 9.992188 L 40.023438 2.445312 L 26.046875 18.652344 L 34.289062 18.652344 L 30.371094 17.832031 L 40.023438 6.636719 L 43.894531 11.125 L 68.414062 11.125 L 46.535156 9.992188 " fill-opacity="1" fill-rule="nonzero"/></g><g clip-path="url(#id3)"><path fill="#1b2538" d="M 29.441406 2.445312 L 26.046875 6.378906 L 26.046875 5.050781 L 24.109375 5.050781 L 22.855469 7.066406 L 24.109375 6.378906 L 24.109375 8.628906 L 15.464844 18.652344 L 19.078125 18.652344 L 29.441406 6.636719 L 32.226562 9.863281 L 34.734375 8.578125 L 29.441406 2.445312 " fill-opacity="1" fill-rule="nonzero"/></g><g fill="#1b2538" fill-opacity="1"><g transform="translate(1.550276, 29.493511)"><g><path d="M 4.625 0 C 4.5625 -0.175781 4.46875 -0.269531 4.34375 -0.28125 L 3.625 -0.28125 L 3.625 -6.078125 L 3.9375 -6.078125 C 4.457031 -6.078125 4.828125 -5.816406 5.046875 -5.296875 C 5.078125 -5.210938 5.109375 -5.125 5.140625 -5.03125 L 5.421875 -4.140625 L 5.734375 -4.140625 L 5.6875 -6.359375 L 0.28125 -6.359375 L 0.21875 -4.140625 L 0.546875 -4.140625 L 0.8125 -5.03125 C 0.988281 -5.582031 1.265625 -5.914062 1.640625 -6.03125 C 1.742188 -6.0625 1.867188 -6.078125 2.015625 -6.078125 L 2.328125 -6.078125 L 2.328125 -0.28125 L 1.3125 -0.28125 L 1.3125 0 Z M 4.625 0 "/></g></g></g><g fill="#1b2538" fill-opacity="1"><g transform="translate(8.301945, 29.493511)"><g><path d="M 3.28125 0 L 3.28125 -0.28125 L 2.421875 -0.28125 L 2.421875 -2.90625 L 3.109375 -2.90625 L 4.71875 0.015625 L 6.5 0 C 6.5 -0.15625 6.453125 -0.242188 6.359375 -0.265625 C 6.316406 -0.273438 6.273438 -0.28125 6.234375 -0.28125 L 6.015625 -0.28125 L 4.34375 -3.015625 C 5.070312 -3.210938 5.535156 -3.597656 5.734375 -4.171875 C 5.785156 -4.347656 5.8125 -4.523438 5.8125 -4.703125 C 5.8125 -5.234375 5.578125 -5.65625 5.109375 -5.96875 C 4.722656 -6.226562 4.25 -6.359375 3.6875 -6.359375 L 0.28125 -6.359375 L 0.28125 -6.078125 L 1.125 -6.078125 L 1.125 -0.28125 L 0.28125 -0.28125 L 0.28125 0 Z M 3.15625 -6.078125 C 3.726562 -6.078125 4.113281 -5.8125 4.3125 -5.28125 C 4.382812 -5.09375 4.421875 -4.890625 4.421875 -4.671875 C 4.421875 -4.097656 4.238281 -3.679688 3.875 -3.421875 C 3.6875 -3.285156 3.46875 -3.21875 3.21875 -3.21875 L 2.421875 -3.21875 L 2.421875 -6.078125 Z M 3.15625 -6.078125 "/></g></g></g><g fill="#1b2538" fill-opacity="1"><g transform="translate(15.594377, 29.493511)"><g><path d="M 6.75 0 C 6.75 -0.164062 6.695312 -0.257812 6.59375 -0.28125 C 6.5625 -0.28125 6.523438 -0.28125 6.484375 -0.28125 L 6.15625 -0.28125 L 3.671875 -6.359375 L 3.015625 -6.359375 L 0.671875 -0.28125 L 0 -0.28125 L 0 0 L 1.9375 0 C 1.9375 -0.164062 1.882812 -0.257812 1.78125 -0.28125 C 1.75 -0.28125 1.710938 -0.28125 1.671875 -0.28125 L 1.109375 -0.28125 L 1.875 -2.328125 L 4.015625 -2.328125 L 4.8125 -0.28125 L 4.078125 -0.28125 L 4.078125 0 Z M 3.890625 -2.640625 L 2 -2.640625 L 2.9375 -5.125 Z M 3.890625 -2.640625 "/></g></g></g><g fill="#1b2538" fill-opacity="1"><g transform="translate(23.130681, 29.493511)"><g><path d="M 3.5 0.046875 L 5.703125 -6.078125 L 6.234375 -6.078125 L 6.234375 -6.359375 L 4.4375 -6.359375 L 4.4375 -6.078125 L 5.296875 -6.078125 L 3.625 -1.421875 L 1.796875 -6.078125 L 2.625 -6.078125 L 2.625 -6.359375 L -0.078125 -6.359375 L -0.078125 -6.078125 L 0.484375 -6.078125 L 2.5625 -0.78125 C 2.726562 -0.351562 2.859375 -0.101562 2.953125 -0.03125 C 3.035156 0.0195312 3.15625 0.046875 3.3125 0.046875 Z M 3.5 0.046875 "/></g></g></g><g fill="#1b2538" fill-opacity="1"><g transform="translate(30.158033, 29.493511)"><g><path d="M 5.5 -4.375 L 5.453125 -6.359375 L 0.28125 -6.359375 L 0.28125 -6.078125 L 1.125 -6.078125 L 1.125 -0.28125 L 0.28125 -0.28125 L 0.28125 0 L 5.453125 0 L 5.5 -2 L 5.21875 -2 L 5 -1.34375 C 4.820312 -0.789062 4.546875 -0.457031 4.171875 -0.34375 C 4.054688 -0.300781 3.925781 -0.28125 3.78125 -0.28125 L 2.421875 -0.28125 L 2.421875 -3.125 L 4.515625 -3.125 L 4.515625 -3.4375 L 2.421875 -3.4375 L 2.421875 -6.078125 L 3.78125 -6.078125 C 4.332031 -6.078125 4.71875 -5.796875 4.9375 -5.234375 C 4.96875 -5.160156 4.992188 -5.09375 5.015625 -5.03125 L 5.21875 -4.375 Z M 5.5 -4.375 "/></g></g></g><g fill="#1b2538" fill-opacity="1"><g transform="translate(36.941511, 29.493511)"><g><path d="M 5.296875 0 L 5.34375 -2.25 L 5.0625 -2.25 L 4.796875 -1.34375 C 4.648438 -0.84375 4.4375 -0.523438 4.15625 -0.390625 C 4.007812 -0.316406 3.835938 -0.28125 3.640625 -0.28125 L 2.421875 -0.28125 L 2.421875 -6.078125 L 3.328125 -6.078125 L 3.328125 -6.359375 L 0.28125 -6.359375 L 0.28125 -6.078125 L 1.125 -6.078125 L 1.125 -0.28125 L 0.28125 -0.28125 L 0.28125 0 Z M 5.296875 0 "/></g></g></g><g fill="#1b2538" fill-opacity="1"><g transform="translate(43.110008, 29.493511)"><g><path d="M 3.765625 -6.46875 C 2.847656 -6.46875 2.070312 -6.175781 1.4375 -5.59375 C 0.769531 -4.976562 0.4375 -4.1875 0.4375 -3.21875 C 0.4375 -2.09375 0.835938 -1.21875 1.640625 -0.59375 C 2.234375 -0.125 2.929688 0.109375 3.734375 0.109375 C 4.640625 0.109375 5.40625 -0.1875 6.03125 -0.78125 C 6.695312 -1.394531 7.03125 -2.191406 7.03125 -3.171875 C 7.03125 -4.328125 6.617188 -5.210938 5.796875 -5.828125 C 5.222656 -6.253906 4.546875 -6.46875 3.765625 -6.46875 Z M 3.765625 -0.203125 C 2.890625 -0.203125 2.328125 -0.664062 2.078125 -1.59375 C 1.960938 -2.019531 1.90625 -2.546875 1.90625 -3.171875 C 1.90625 -5.054688 2.445312 -6.050781 3.53125 -6.15625 C 3.601562 -6.15625 3.671875 -6.15625 3.734375 -6.15625 C 4.679688 -6.15625 5.257812 -5.582031 5.46875 -4.4375 C 5.53125 -4.082031 5.5625 -3.675781 5.5625 -3.21875 C 5.5625 -1.476562 5.117188 -0.488281 4.234375 -0.25 C 4.085938 -0.21875 3.929688 -0.203125 3.765625 -0.203125 Z M 3.765625 -0.203125 "/></g></g></g><g fill="#1b2538" fill-opacity="1"><g transform="translate(51.367326, 29.493511)"><g><path d="M 0.28125 -6.359375 L 0.28125 -6.078125 L 1.125 -6.078125 L 1.125 -0.28125 L 0.28125 -0.28125 L 0.28125 0 L 3.359375 0 C 4.328125 0 5.128906 -0.296875 5.765625 -0.890625 C 6.378906 -1.472656 6.6875 -2.234375 6.6875 -3.171875 C 6.6875 -4.359375 6.242188 -5.238281 5.359375 -5.8125 C 4.785156 -6.175781 4.113281 -6.359375 3.34375 -6.359375 Z M 3.359375 -6.078125 C 4.222656 -6.078125 4.785156 -5.660156 5.046875 -4.828125 C 5.171875 -4.398438 5.234375 -3.863281 5.234375 -3.21875 C 5.234375 -1.59375 4.820312 -0.644531 4 -0.375 C 3.8125 -0.3125 3.597656 -0.28125 3.359375 -0.28125 L 2.421875 -0.28125 L 2.421875 -6.078125 Z M 3.359375 -6.078125 "/></g></g></g><g fill="#1b2538" fill-opacity="1"><g transform="translate(59.295949, 29.493511)"><g><path d="M 4.203125 -2.90625 L 4.203125 -2.625 L 5.125 -2.625 L 5.125 -0.71875 C 4.78125 -0.382812 4.34375 -0.21875 3.8125 -0.21875 C 2.851562 -0.21875 2.257812 -0.75 2.03125 -1.8125 C 1.9375 -2.195312 1.890625 -2.648438 1.890625 -3.171875 C 1.898438 -5.148438 2.5625 -6.144531 3.875 -6.15625 C 4.65625 -6.15625 5.21875 -5.800781 5.5625 -5.09375 C 5.675781 -4.832031 5.773438 -4.523438 5.859375 -4.171875 L 6.171875 -4.171875 L 6.125 -6.359375 L 5.15625 -6.15625 C 4.675781 -6.363281 4.175781 -6.46875 3.65625 -6.46875 C 2.726562 -6.46875 1.960938 -6.175781 1.359375 -5.59375 C 0.742188 -5 0.4375 -4.207031 0.4375 -3.21875 C 0.4375 -1.988281 0.875 -1.078125 1.75 -0.484375 C 2.3125 -0.0976562 2.957031 0.09375 3.6875 0.09375 C 4.25 0.09375 4.765625 -0.0195312 5.234375 -0.25 L 6.390625 0 L 6.390625 -2.625 L 7.109375 -2.625 L 7.109375 -2.90625 Z M 4.203125 -2.90625 "/></g></g></g><g fill="#1b2538" fill-opacity="1"><g transform="translate(67.457842, 29.493511)"><g><path d="M 5.5 -4.375 L 5.453125 -6.359375 L 0.28125 -6.359375 L 0.28125 -6.078125 L 1.125 -6.078125 L 1.125 -0.28125 L 0.28125 -0.28125 L 0.28125 0 L 5.453125 0 L 5.5 -2 L 5.21875 -2 L 5 -1.34375 C 4.820312 -0.789062 4.546875 -0.457031 4.171875 -0.34375 C 4.054688 -0.300781 3.925781 -0.28125 3.78125 -0.28125 L 2.421875 -0.28125 L 2.421875 -3.125 L 4.515625 -3.125 L 4.515625 -3.4375 L 2.421875 -3.4375 L 2.421875 -6.078125 L 3.78125 -6.078125 C 4.332031 -6.078125 4.71875 -5.796875 4.9375 -5.234375 C 4.96875 -5.160156 4.992188 -5.09375 5.015625 -5.03125 L 5.21875 -4.375 Z M 5.5 -4.375 "/></g></g></g><g fill="#526799" fill-opacity="1"><g transform="translate(3.208322, 36.180987)"><g><path d="M 2.671875 -2.125 L 2.65625 -3.109375 L 0.140625 -3.109375 L 0.140625 -2.96875 L 0.546875 -2.96875 L 0.546875 -0.140625 L 0.140625 -0.140625 L 0.140625 0 L 2.65625 0 L 2.671875 -0.96875 L 2.546875 -0.96875 L 2.4375 -0.65625 C 2.351562 -0.382812 2.21875 -0.222656 2.03125 -0.171875 C 1.976562 -0.148438 1.914062 -0.140625 1.84375 -0.140625 L 1.1875 -0.140625 L 1.1875 -1.515625 L 2.203125 -1.515625 L 2.203125 -1.671875 L 1.1875 -1.671875 L 1.1875 -2.96875 L 1.84375 -2.96875 C 2.113281 -2.96875 2.300781 -2.828125 2.40625 -2.546875 C 2.425781 -2.515625 2.441406 -2.484375 2.453125 -2.453125 L 2.546875 -2.125 Z M 2.671875 -2.125 "/></g></g></g><g fill="#526799" fill-opacity="1"><g transform="translate(7.194524, 36.180987)"><g><path d="M 1 0 L 1 -0.140625 L 0.59375 -0.140625 L 1.4375 -1.328125 L 2.234375 -0.140625 L 1.859375 -0.140625 L 1.859375 0 L 3.234375 0 C 3.210938 -0.0820312 3.164062 -0.128906 3.09375 -0.140625 L 2.9375 -0.140625 L 1.859375 -1.75 L 2.625 -2.8125 C 2.6875 -2.90625 2.757812 -2.957031 2.84375 -2.96875 C 2.863281 -2.96875 2.882812 -2.96875 2.90625 -2.96875 C 2.988281 -2.988281 3.035156 -3.035156 3.046875 -3.109375 L 2.125 -3.109375 L 2.125 -2.96875 L 2.546875 -2.96875 L 1.765625 -1.875 L 1.046875 -2.96875 L 1.40625 -2.96875 L 1.40625 -3.109375 L 0.0625 -3.109375 L 0.0625 -2.96875 L 0.375 -2.96875 L 1.34375 -1.484375 L 0.484375 -0.28125 C 0.410156 -0.1875 0.304688 -0.140625 0.171875 -0.140625 C 0.0859375 -0.109375 0.0390625 -0.0625 0.03125 0 Z M 1 0 "/></g></g></g><g fill="#526799" fill-opacity="1"><g transform="translate(11.491007, 36.180987)"><g><path d="M 1.5625 -2.96875 C 1.90625 -2.96875 2.097656 -2.773438 2.140625 -2.390625 C 2.140625 -2.347656 2.140625 -2.300781 2.140625 -2.25 C 2.140625 -1.789062 1.957031 -1.546875 1.59375 -1.515625 C 1.570312 -1.515625 1.550781 -1.515625 1.53125 -1.515625 L 1.1875 -1.515625 L 1.1875 -2.96875 Z M 1.703125 0 C 1.679688 -0.0820312 1.632812 -0.128906 1.5625 -0.140625 L 1.1875 -0.140625 L 1.1875 -1.359375 L 1.625 -1.359375 C 2.207031 -1.359375 2.578125 -1.535156 2.734375 -1.890625 C 2.796875 -2.003906 2.828125 -2.132812 2.828125 -2.28125 C 2.828125 -2.601562 2.679688 -2.835938 2.390625 -2.984375 C 2.222656 -3.066406 2.023438 -3.109375 1.796875 -3.109375 L 0.140625 -3.109375 L 0.140625 -2.96875 L 0.546875 -2.96875 L 0.546875 -0.140625 L 0.140625 -0.140625 L 0.140625 0 Z M 1.703125 0 "/></g></g></g><g fill="#526799" fill-opacity="1"><g transform="translate(15.461695, 36.180987)"><g><path d="M 2.671875 -2.125 L 2.65625 -3.109375 L 0.140625 -3.109375 L 0.140625 -2.96875 L 0.546875 -2.96875 L 0.546875 -0.140625 L 0.140625 -0.140625 L 0.140625 0 L 2.65625 0 L 2.671875 -0.96875 L 2.546875 -0.96875 L 2.4375 -0.65625 C 2.351562 -0.382812 2.21875 -0.222656 2.03125 -0.171875 C 1.976562 -0.148438 1.914062 -0.140625 1.84375 -0.140625 L 1.1875 -0.140625 L 1.1875 -1.515625 L 2.203125 -1.515625 L 2.203125 -1.671875 L 1.1875 -1.671875 L 1.1875 -2.96875 L 1.84375 -2.96875 C 2.113281 -2.96875 2.300781 -2.828125 2.40625 -2.546875 C 2.425781 -2.515625 2.441406 -2.484375 2.453125 -2.453125 L 2.546875 -2.125 Z M 2.671875 -2.125 "/></g></g></g><g fill="#526799" fill-opacity="1"><g transform="translate(19.447897, 36.180987)"><g><path d="M 1.59375 0 L 1.59375 -0.140625 L 1.1875 -0.140625 L 1.1875 -1.421875 L 1.515625 -1.421875 L 2.296875 0 L 3.171875 0 C 3.171875 -0.0703125 3.148438 -0.113281 3.109375 -0.125 C 3.085938 -0.132812 3.066406 -0.140625 3.046875 -0.140625 L 2.9375 -0.140625 L 2.125 -1.46875 C 2.476562 -1.5625 2.703125 -1.75 2.796875 -2.03125 C 2.816406 -2.113281 2.828125 -2.203125 2.828125 -2.296875 C 2.828125 -2.546875 2.71875 -2.75 2.5 -2.90625 C 2.300781 -3.039062 2.066406 -3.109375 1.796875 -3.109375 L 0.140625 -3.109375 L 0.140625 -2.96875 L 0.546875 -2.96875 L 0.546875 -0.140625 L 0.140625 -0.140625 L 0.140625 0 Z M 1.546875 -2.96875 C 1.816406 -2.96875 2.003906 -2.835938 2.109375 -2.578125 C 2.140625 -2.484375 2.15625 -2.382812 2.15625 -2.28125 C 2.15625 -2 2.066406 -1.796875 1.890625 -1.671875 C 1.796875 -1.609375 1.691406 -1.578125 1.578125 -1.578125 L 1.1875 -1.578125 L 1.1875 -2.96875 Z M 1.546875 -2.96875 "/></g></g></g><g fill="#526799" fill-opacity="1"><g transform="translate(23.682323, 36.180987)"><g><path d="M 1.59375 0 C 1.570312 -0.0820312 1.523438 -0.128906 1.453125 -0.140625 L 1.1875 -0.140625 L 1.1875 -2.96875 L 1.59375 -2.96875 L 1.59375 -3.109375 L 0.140625 -3.109375 L 0.140625 -2.96875 L 0.546875 -2.96875 L 0.546875 -0.140625 L 0.140625 -0.140625 L 0.140625 0 Z M 1.59375 0 "/></g></g></g><g fill="#526799" fill-opacity="1"><g transform="translate(26.479114, 36.180987)"><g><path d="M 2.671875 -2.125 L 2.65625 -3.109375 L 0.140625 -3.109375 L 0.140625 -2.96875 L 0.546875 -2.96875 L 0.546875 -0.140625 L 0.140625 -0.140625 L 0.140625 0 L 2.65625 0 L 2.671875 -0.96875 L 2.546875 -0.96875 L 2.4375 -0.65625 C 2.351562 -0.382812 2.21875 -0.222656 2.03125 -0.171875 C 1.976562 -0.148438 1.914062 -0.140625 1.84375 -0.140625 L 1.1875 -0.140625 L 1.1875 -1.515625 L 2.203125 -1.515625 L 2.203125 -1.671875 L 1.1875 -1.671875 L 1.1875 -2.96875 L 1.84375 -2.96875 C 2.113281 -2.96875 2.300781 -2.828125 2.40625 -2.546875 C 2.425781 -2.515625 2.441406 -2.484375 2.453125 -2.453125 L 2.546875 -2.125 Z M 2.671875 -2.125 "/></g></g></g><g fill="#526799" fill-opacity="1"><g transform="translate(30.465315, 36.180987)"><g><path d="M 2.359375 -2.96875 L 2.78125 -2.96875 L 2.78125 -0.859375 L 0.90625 -3.109375 L 0.09375 -3.109375 L 0.09375 -2.96875 L 0.5 -2.96875 L 0.5 -0.140625 L 0.09375 -0.140625 L 0.09375 0 L 1.15625 0 C 1.132812 -0.0820312 1.085938 -0.128906 1.015625 -0.140625 L 0.71875 -0.140625 L 0.71875 -2.375 L 2.71875 0.03125 L 3 -0.03125 L 3 -2.96875 L 3.40625 -2.96875 L 3.40625 -3.109375 L 2.359375 -3.109375 Z M 2.359375 -2.96875 "/></g></g></g><g fill="#526799" fill-opacity="1"><g transform="translate(34.973825, 36.180987)"><g><path d="M 2.828125 -0.21875 C 2.816406 -0.0820312 2.84375 -0.00390625 2.90625 0.015625 C 2.925781 0.0234375 2.957031 0.03125 3 0.03125 L 3 -0.984375 L 2.84375 -0.984375 C 2.695312 -0.460938 2.421875 -0.171875 2.015625 -0.109375 C 1.953125 -0.0976562 1.894531 -0.09375 1.84375 -0.09375 C 1.21875 -0.101562 0.90625 -0.59375 0.90625 -1.5625 C 0.90625 -2.320312 1.113281 -2.785156 1.53125 -2.953125 C 1.632812 -2.984375 1.75 -3 1.875 -3 C 2.257812 -3 2.539062 -2.8125 2.71875 -2.4375 C 2.75 -2.34375 2.78125 -2.238281 2.8125 -2.125 L 2.984375 -2.125 L 2.96875 -3.125 C 2.882812 -3.125 2.832031 -3.097656 2.8125 -3.046875 C 2.800781 -3.003906 2.796875 -2.953125 2.796875 -2.890625 C 2.515625 -3.066406 2.1875 -3.15625 1.8125 -3.15625 C 1.238281 -3.15625 0.800781 -2.953125 0.5 -2.546875 C 0.289062 -2.253906 0.1875 -1.925781 0.1875 -1.5625 C 0.1875 -1.113281 0.328125 -0.734375 0.609375 -0.421875 C 0.921875 -0.109375 1.320312 0.046875 1.8125 0.046875 C 2.164062 0.046875 2.503906 -0.0390625 2.828125 -0.21875 Z M 2.828125 -0.21875 "/></g></g></g><g fill="#526799" fill-opacity="1"><g transform="translate(39.182396, 36.180987)"><g><path d="M 2.671875 -2.125 L 2.65625 -3.109375 L 0.140625 -3.109375 L 0.140625 -2.96875 L 0.546875 -2.96875 L 0.546875 -0.140625 L 0.140625 -0.140625 L 0.140625 0 L 2.65625 0 L 2.671875 -0.96875 L 2.546875 -0.96875 L 2.4375 -0.65625 C 2.351562 -0.382812 2.21875 -0.222656 2.03125 -0.171875 C 1.976562 -0.148438 1.914062 -0.140625 1.84375 -0.140625 L 1.1875 -0.140625 L 1.1875 -1.515625 L 2.203125 -1.515625 L 2.203125 -1.671875 L 1.1875 -1.671875 L 1.1875 -2.96875 L 1.84375 -2.96875 C 2.113281 -2.96875 2.300781 -2.828125 2.40625 -2.546875 C 2.425781 -2.515625 2.441406 -2.484375 2.453125 -2.453125 L 2.546875 -2.125 Z M 2.671875 -2.125 "/></g></g></g><g fill="#526799" fill-opacity="1"><g transform="translate(43.168599, 36.180987)"><g/></g></g><g fill="#526799" fill-opacity="1"><g transform="translate(45.241402, 36.180987)"><g><path d="M 2.25 0 C 2.226562 -0.0820312 2.1875 -0.128906 2.125 -0.140625 L 1.765625 -0.140625 L 1.765625 -2.96875 L 1.921875 -2.96875 C 2.171875 -2.96875 2.351562 -2.835938 2.46875 -2.578125 C 2.476562 -2.535156 2.492188 -2.492188 2.515625 -2.453125 L 2.640625 -2.015625 L 2.796875 -2.015625 L 2.765625 -3.109375 L 0.140625 -3.109375 L 0.109375 -2.015625 L 0.265625 -2.015625 L 0.390625 -2.453125 C 0.472656 -2.722656 0.609375 -2.882812 0.796875 -2.9375 C 0.847656 -2.957031 0.910156 -2.96875 0.984375 -2.96875 L 1.140625 -2.96875 L 1.140625 -0.140625 L 0.640625 -0.140625 L 0.640625 0 Z M 2.25 0 "/></g></g></g><g fill="#526799" fill-opacity="1"><g transform="translate(49.212091, 36.180987)"><g><path d="M 1.59375 0 C 1.570312 -0.0820312 1.523438 -0.128906 1.453125 -0.140625 L 1.1875 -0.140625 L 1.1875 -1.515625 L 2.59375 -1.515625 L 2.59375 -0.140625 L 2.171875 -0.140625 L 2.171875 0 L 3.625 0 C 3.601562 -0.0820312 3.5625 -0.128906 3.5 -0.140625 L 3.21875 -0.140625 L 3.21875 -2.96875 L 3.625 -2.96875 L 3.625 -3.109375 L 2.171875 -3.109375 L 2.171875 -2.96875 L 2.59375 -2.96875 L 2.59375 -1.671875 L 1.1875 -1.671875 L 1.1875 -2.96875 L 1.59375 -2.96875 L 1.59375 -3.109375 L 0.140625 -3.109375 L 0.140625 -2.96875 L 0.546875 -2.96875 L 0.546875 -0.140625 L 0.140625 -0.140625 L 0.140625 0 Z M 1.59375 0 "/></g></g></g><g fill="#526799" fill-opacity="1"><g transform="translate(54.046396, 36.180987)"><g><path d="M 2.671875 -2.125 L 2.65625 -3.109375 L 0.140625 -3.109375 L 0.140625 -2.96875 L 0.546875 -2.96875 L 0.546875 -0.140625 L 0.140625 -0.140625 L 0.140625 0 L 2.65625 0 L 2.671875 -0.96875 L 2.546875 -0.96875 L 2.4375 -0.65625 C 2.351562 -0.382812 2.21875 -0.222656 2.03125 -0.171875 C 1.976562 -0.148438 1.914062 -0.140625 1.84375 -0.140625 L 1.1875 -0.140625 L 1.1875 -1.515625 L 2.203125 -1.515625 L 2.203125 -1.671875 L 1.1875 -1.671875 L 1.1875 -2.96875 L 1.84375 -2.96875 C 2.113281 -2.96875 2.300781 -2.828125 2.40625 -2.546875 C 2.425781 -2.515625 2.441406 -2.484375 2.453125 -2.453125 L 2.546875 -2.125 Z M 2.671875 -2.125 "/></g></g></g><g fill="#526799" fill-opacity="1"><g transform="translate(58.032599, 36.180987)"><g/></g></g><g fill="#526799" fill-opacity="1"><g transform="translate(60.105399, 36.180987)"><g><path d="M 2.59375 0 L 2.609375 -1.09375 L 2.46875 -1.09375 L 2.34375 -0.65625 C 2.269531 -0.414062 2.164062 -0.257812 2.03125 -0.1875 C 1.957031 -0.15625 1.875 -0.140625 1.78125 -0.140625 L 1.1875 -0.140625 L 1.1875 -2.96875 L 1.625 -2.96875 L 1.625 -3.109375 L 0.140625 -3.109375 L 0.140625 -2.96875 L 0.546875 -2.96875 L 0.546875 -0.140625 L 0.140625 -0.140625 L 0.140625 0 Z M 2.59375 0 "/></g></g></g><g fill="#526799" fill-opacity="1"><g transform="translate(63.791664, 36.180987)"><g><path d="M 1.59375 0 C 1.570312 -0.0820312 1.523438 -0.128906 1.453125 -0.140625 L 1.1875 -0.140625 L 1.1875 -2.96875 L 1.59375 -2.96875 L 1.59375 -3.109375 L 0.140625 -3.109375 L 0.140625 -2.96875 L 0.546875 -2.96875 L 0.546875 -0.140625 L 0.140625 -0.140625 L 0.140625 0 Z M 1.59375 0 "/></g></g></g><g fill="#526799" fill-opacity="1"><g transform="translate(66.588456, 36.180987)"><g><path d="M 1.796875 0 L 1.796875 -0.140625 L 1.1875 -0.140625 L 1.1875 -1.515625 L 2.203125 -1.515625 L 2.203125 -1.671875 L 1.1875 -1.671875 L 1.1875 -2.96875 L 1.84375 -2.96875 C 2.132812 -2.96875 2.332031 -2.800781 2.4375 -2.46875 C 2.445312 -2.457031 2.453125 -2.453125 2.453125 -2.453125 L 2.546875 -2.109375 L 2.671875 -2.109375 L 2.65625 -3.109375 L 0.140625 -3.109375 L 0.140625 -2.96875 L 0.546875 -2.96875 L 0.546875 -0.140625 L 0.140625 -0.140625 L 0.140625 0 Z M 1.796875 0 "/></g></g></g><g fill="#526799" fill-opacity="1"><g transform="translate(70.367805, 36.180987)"><g><path d="M 2.671875 -2.125 L 2.65625 -3.109375 L 0.140625 -3.109375 L 0.140625 -2.96875 L 0.546875 -2.96875 L 0.546875 -0.140625 L 0.140625 -0.140625 L 0.140625 0 L 2.65625 0 L 2.671875 -0.96875 L 2.546875 -0.96875 L 2.4375 -0.65625 C 2.351562 -0.382812 2.21875 -0.222656 2.03125 -0.171875 C 1.976562 -0.148438 1.914062 -0.140625 1.84375 -0.140625 L 1.1875 -0.140625 L 1.1875 -1.515625 L 2.203125 -1.515625 L 2.203125 -1.671875 L 1.1875 -1.671875 L 1.1875 -2.96875 L 1.84375 -2.96875 C 2.113281 -2.96875 2.300781 -2.828125 2.40625 -2.546875 C 2.425781 -2.515625 2.441406 -2.484375 2.453125 -2.453125 L 2.546875 -2.125 Z M 2.671875 -2.125 "/></g></g></g></svg>