<svg xmlns="http://www.w3.org/2000/svg" xmlns:xlink="http://www.w3.org/1999/xlink" width="100" zoomAndPan="magnify" viewBox="0 0 75 41.25" height="55" preserveAspectRatio="xMidYMid meet" version="1.0"><defs><clipPath id="id1"><path d="M 8 16 L 24 16 L 24 31.894531 L 8 31.894531 Z M 8 16 " clip-rule="nonzero"/></clipPath><clipPath id="id2"><path d="M 16 8.324219 L 74.328125 8.324219 L 74.328125 31.894531 L 16 31.894531 Z M 16 8.324219 " clip-rule="nonzero"/></clipPath><clipPath id="id3"><path d="M 0.667969 8.324219 L 29 8.324219 L 29 31.894531 L 0.667969 31.894531 Z M 0.667969 8.324219 " clip-rule="nonzero"/></clipPath></defs><g clip-path="url(#id1)"><path fill="#fafafa" d="M 8.492188 31.238281 L 21.121094 16.585938 L 23.226562 19.082031 L 21.15625 17.867188 L 8.492188 31.238281 " fill-opacity="1" fill-rule="nonzero"/></g><path fill="#fafafa" d="M 24.96875 29.988281 L 36.523438 16.585938 L 39.949219 20.734375 L 36.558594 17.867188 L 24.96875 29.988281 " fill-opacity="1" fill-rule="nonzero"/><g clip-path="url(#id2)"><path fill="#ffffff" d="M 46.046875 19.308594 L 36.550781 8.324219 L 16.15625 31.898438 L 28.183594 31.898438 L 22.464844 30.707031 L 36.550781 14.421875 L 42.199219 20.953125 L 77.964844 20.953125 L 46.046875 19.308594 " fill-opacity="1" fill-rule="nonzero"/></g><g clip-path="url(#id3)"><path fill="#526799" d="M 21.109375 8.324219 L 16.160156 14.050781 L 16.160156 12.117188 L 13.328125 12.117188 L 11.503906 15.046875 L 13.328125 14.046875 L 13.328125 17.320312 L 0.71875 31.898438 L 5.992188 31.898438 L 21.109375 14.421875 L 25.171875 19.117188 L 28.832031 17.25 L 21.109375 8.324219 " fill-opacity="1" fill-rule="nonzero"/></g></svg>